<?xml version="1.0" standalone="no"?>
<!DOCTYPE svg PUBLIC "-//W3C//DTD SVG 20010904//EN"
 "http://www.w3.org/TR/2001/REC-SVG-20010904/DTD/svg10.dtd">
<svg version="1.0" xmlns="http://www.w3.org/2000/svg"
 width="512.000000pt" height="512.000000pt" viewBox="0 0 512.000000 512.000000"
 preserveAspectRatio="xMidYMid meet">
<metadata>
Created by potrace 1.11, written by Peter Selinger 2001-2013
</metadata>
<g transform="translate(0.000000,512.000000) scale(0.100000,-0.100000)"
fill="#000000" stroke="none">
<path d="M5070 5098 c-167 -80 -313 -148 -316 -148 -1 0 -76 -34 -166 -76
-153 -72 -213 -100 -348 -162 -30 -13 -98 -45 -150 -69 -52 -25 -174 -81 -270
-125 -96 -44 -215 -100 -265 -123 -49 -24 -142 -66 -205 -95 -63 -29 -155 -72
-205 -95 -86 -41 -132 -62 -305 -142 -99 -46 -135 -62 -264 -122 -59 -28 -110
-51 -112 -51 -2 0 -48 -22 -104 -49 -55 -27 -100 -47 -100 -44 0 3 -6 1 -12
-5 -7 -6 -101 -51 -208 -100 -107 -49 -229 -106 -270 -125 -41 -19 -140 -65
-220 -102 -80 -37 -176 -82 -215 -100 -38 -18 -90 -42 -115 -53 -25 -11 -85
-39 -135 -62 -49 -23 -115 -53 -145 -67 -30 -14 -93 -43 -140 -65 -47 -22
-168 -78 -270 -125 -102 -46 -189 -88 -195 -92 -5 -4 -28 -15 -50 -24 -22 -8
-88 -38 -147 -66 -58 -28 -112 -51 -119 -51 -20 0 0 -14 24 -16 12 -1 65 -5
117 -9 52 -3 111 -8 130 -10 19 -3 71 -7 115 -10 44 -3 98 -7 120 -9 22 -2 83
-7 135 -11 52 -4 111 -8 130 -10 19 -2 73 -6 120 -9 47 -4 105 -9 130 -11 25
-3 81 -7 125 -10 44 -3 100 -8 125 -10 25 -2 79 -7 120 -10 41 -3 100 -8 130
-10 30 -3 85 -7 123 -10 62 -5 100 -8 247 -19 30 -3 89 -8 130 -11 41 -3 95
-8 120 -10 25 -2 89 -7 143 -11 54 -3 106 -7 115 -9 9 -2 41 -4 69 -4 61 -1
59 3 68 -131 3 -47 8 -103 10 -125 2 -22 7 -76 10 -120 7 -95 14 -190 21 -264
2 -29 7 -87 9 -130 3 -42 8 -94 10 -116 2 -22 7 -78 10 -125 3 -47 7 -107 10
-135 2 -27 7 -86 10 -130 4 -44 8 -100 10 -125 3 -25 7 -79 10 -120 13 -185
16 -218 20 -265 2 -27 7 -81 10 -120 3 -38 8 -95 10 -125 2 -30 7 -91 10 -135
4 -44 8 -96 10 -115 4 -43 18 -230 18 -247 1 -27 5 -19 96 180 52 112 86 187
140 300 28 60 51 110 51 112 0 1 29 64 65 140 36 75 65 138 65 140 0 2 29 65
65 140 36 75 65 138 65 140 0 3 57 127 142 305 17 36 52 112 78 170 27 58 73
158 104 224 31 65 56 119 56 121 0 1 32 69 70 149 39 81 70 149 70 151 0 2 29
65 65 140 36 76 65 139 65 140 0 2 21 47 46 102 102 218 118 252 169 363 29
63 68 149 88 190 92 196 126 269 207 445 49 105 106 228 128 275 33 70 182
393 312 675 15 33 60 130 100 215 39 85 81 175 92 200 12 25 25 53 30 63 5 9
7 17 6 17 -2 -1 -23 -11 -48 -22z"/>
</g>
</svg>
